<svg xmlns="http://www.w3.org/2000/svg" width="557.233" height="570.125" viewBox="0 0 557.233 570.125">
  <g id="hero" transform="translate(-78.723)">
    <path id="Path_36" data-name="Path 36" d="M383.955,670.805c-21.42,11.55-30.615,36.063-30.615,36.063s25.533,5.787,46.953-5.763,30.615-36.063,30.615-36.063S405.375,659.255,383.955,670.805Z" transform="translate(-274 -164.937)" fill="#f2f2f2"/>
    <path id="Path_37" data-name="Path 37" d="M391,678.744c-12.545,20.852-37.464,28.883-37.464,28.883S348.96,681.85,361.505,661s37.464-28.883,37.464-28.883S403.548,657.892,391,678.744Z" transform="translate(-274 -164.937)" fill="#f2f2f2"/>
    <rect id="Rectangle_8" data-name="Rectangle 8" width="76" height="45" transform="translate(437.445 40.125)" fill="#2f2e41"/>
    <path id="Path_38" data-name="Path 38" d="M636.152,212.319H596.968V198.655a19.592,19.592,0,1,1,39.184,0Zm-38.317-.868h37.449v-12.8a18.725,18.725,0,1,0-37.449,0Z" transform="translate(-274 -164.937)" fill="#3f3d56"/>
    <path id="Path_39" data-name="Path 39" d="M381.527,45.5v-5.34l-99.65,2.67-3.154,135.26,14.748,18.218Z" fill="#3f3d56"/>
    <path id="Path_40" data-name="Path 40" d="M399.167,43.622,291.158,46.08l2.313,150.23L397.7,185.075Z" fill="#18ebb6"/>
    <path id="Path_41" data-name="Path 41" d="M491,530.355h-12.26L472.9,483.067H491Z" fill="#ffb6b6"/>
    <path id="Path_42" data-name="Path 42" d="M768.123,707.176H728.593v-.5a15.387,15.387,0,0,1,15.385-15.386h24.146Z" transform="translate(-274 -164.937)" fill="#2f2e41"/>
    <path id="Path_43" data-name="Path 43" d="M446,530.355h-12.26L427.9,483.067H446Z" fill="#ffb6b6"/>
    <path id="Path_44" data-name="Path 44" d="M723.123,707.176H683.593v-.5a15.387,15.387,0,0,1,15.385-15.386h24.146Z" transform="translate(-274 -164.937)" fill="#2f2e41"/>
    <path id="Path_45" data-name="Path 45" d="M683.992,399.2s-17.912,38.575-1.73,116.22,16.316,162.888,16.316,162.888l24.744.4,13.9-183.52L744.5,676.118h24.378l21.484-178.069s14.138-79.513-17.39-93.75Z" transform="translate(-274 -164.937)" fill="#2f2e41"/>
    <path id="Path_46" data-name="Path 46" d="M769.733,263.063l-54.178-4.994h0c-16.99,12.384-26.525,34.625-24.568,57.574,2.654,31.115,1.756,73.934-19.542,92.536,0,0,58.049,45.816,109.615,2.35,0,0-17.633-47.238-5.526-66.1S792.007,272.563,769.733,263.063Z" transform="translate(-274 -164.937)" fill="#e4e4e4"/>
    <path id="Path_47" data-name="Path 47" d="M608.527,186.179a10.743,10.743,0,0,0,11.44,11.852L691.5,264.789l12.821-19.53-74.346-59.48a10.8,10.8,0,0,0-21.448.4Z" transform="translate(-274 -164.937)" fill="#ffb6b6"/>
    <path id="Path_48" data-name="Path 48" d="M678.142,254.476l16.97-17.432a4.817,4.817,0,0,1,7.281.438L717.1,256.765a13.377,13.377,0,1,1-18.719,19.116l-19.611-14.138a4.817,4.817,0,0,1-.633-7.266Z" transform="translate(-274 -164.937)" fill="#e4e4e4"/>
    <path id="Path_49" data-name="Path 49" d="M874.284,348.749a10.743,10.743,0,0,0-12.081-11.2l-75.132-62.68-11.716,20.212,77.536,55.257a10.8,10.8,0,0,0,21.392-1.59Z" transform="translate(-274 -164.937)" fill="#ffb6b6"/>
    <path id="Path_50" data-name="Path 50" d="M800.982,284.425l-15.975,18.348a4.817,4.817,0,0,1-7.294-.033L761.953,284.3a13.377,13.377,0,0,1,17.628-20.126l20.366,13.027a4.817,4.817,0,0,1,1.036,7.22Z" transform="translate(-274 -164.937)" fill="#e4e4e4"/>
    <path id="Path_51" data-name="Path 51" d="M881.918,375.253H852.237V364.9a14.84,14.84,0,1,1,29.681,0Zm-29.024-.657h28.367V364.9a14.183,14.183,0,1,0-28.367,0Z" transform="translate(-274 -164.937)" fill="#3f3d56"/>
    <path id="Path_52" data-name="Path 52" d="M622.594,208.892v-4.045l-75.482,2.023-2.389,102.455,11.171,13.8Z" fill="#3f3d56"/>
    <path id="Path_53" data-name="Path 53" d="M635.956,207.468l-81.814,1.862,1.752,113.795,78.955-8.51Z" fill="#18ebb6"/>
    <circle id="Ellipse_2" data-name="Ellipse 2" cx="32" cy="32" r="32" transform="translate(440.445 20.125)" fill="#ffb6b6"/>
    <path id="Path_54" data-name="Path 54" d="M731.712,202.8c11.07,10.848,30.334,11.888,42.507,2.294a71.784,71.784,0,0,1-15.288,67.676c6.772,2.447,14.567.837,20.62-3.063s10.535-9.854,13.918-16.21c8.374-15.735,10.47-34.947,4.546-51.758s-20.117-30.75-37.36-35.264-37.014,1.062-48.534,14.663c-12.047,14.222-14,35.061-8.719,52.936s16.857,33.226,29.579,46.847a195.466,195.466,0,0,1-12.055-48.9c-.647-5.737-1.025-11.651.6-17.193s5.61-10.7,11.17-12.26" transform="translate(-274 -164.937)" fill="#2f2e41"/>
    <path id="Path_57" data-name="Path 57" d="M865.918,622.253H836.237V611.9a14.84,14.84,0,1,1,29.681,0Zm-29.024-.657h28.367V611.9a14.183,14.183,0,0,0-28.367,0Z" transform="translate(-274 -164.937)" fill="#cacaca"/>
    <path id="Path_58" data-name="Path 58" d="M606.594,455.892v-4.045l-75.482,2.023-2.389,102.455,11.171,13.8Z" fill="#cacaca"/>
    <path id="Path_59" data-name="Path 59" d="M619.956,454.468l-81.814,1.862,1.752,113.8,78.955-8.51Z" fill="#e4e4e4"/>
  </g>
</svg>
