<svg id="undraw_Mobile_app_re_catg" xmlns="http://www.w3.org/2000/svg" width="520" height="727.843" viewBox="0 0 520 727.843">
  <path id="Path_26" data-name="Path 26" d="M676.514,269h-26a5.006,5.006,0,0,1-5-5V238a5.006,5.006,0,0,1,5-5h26a5.006,5.006,0,0,1,5,5v26A5.006,5.006,0,0,1,676.514,269Zm-26-34a3,3,0,0,0-3,3v26a3,3,0,0,0,3,3h26a3,3,0,0,0,3-3V238a3,3,0,0,0-3-3Z" transform="translate(-161.514 -78)" fill="#e6e6e6"/>
  <path id="Path_27" data-name="Path 27" d="M373.514,114h-26a5.006,5.006,0,0,1-5-5V83a5.006,5.006,0,0,1,5-5h26a5.006,5.006,0,0,1,5,5v26a5.006,5.006,0,0,1-5,5Zm-26-34a3,3,0,0,0-3,3v26a3,3,0,0,0,3,3h26a3,3,0,0,0,3-3V83a3,3,0,0,0-3-3Z" transform="translate(-161.514 -78)" fill="#e6e6e6"/>
  <path id="Path_28" data-name="Path 28" d="M660.514,256h-26a5.006,5.006,0,0,1-5-5V225a5.006,5.006,0,0,1,5-5h26a5.006,5.006,0,0,1,5,5v26A5.006,5.006,0,0,1,660.514,256Zm-26-34a3,3,0,0,0-3,3v26a3,3,0,0,0,3,3h26a3,3,0,0,0,3-3V225a3,3,0,0,0-3-3Z" transform="translate(-161.514 -78)" fill="#e6e6e6"/>
  <path id="Path_29" data-name="Path 29" d="M208.514,473h-26a5.006,5.006,0,0,1-5-5V442a5.006,5.006,0,0,1,5-5h26a5.006,5.006,0,0,1,5,5v26a5.006,5.006,0,0,1-5,5Zm-26-34a3,3,0,0,0-3,3v26a3,3,0,0,0,3,3h26a3,3,0,0,0,3-3V442a3,3,0,0,0-3-3Z" transform="translate(-161.514 -78)" fill="#e6e6e6"/>
  <path id="Path_30" data-name="Path 30" d="M192.514,460h-26a5.006,5.006,0,0,1-5-5V429a5.006,5.006,0,0,1,5-5h26a5.006,5.006,0,0,1,5,5v26a5.006,5.006,0,0,1-5,5Zm-26-34a3,3,0,0,0-3,3v26a3,3,0,0,0,3,3h26a3,3,0,0,0,3-3V429a3,3,0,0,0-3-3Z" transform="translate(-161.514 -78)" fill="#e6e6e6"/>
  <path id="Path_31" data-name="Path 31" d="M253.943,164.039H494.559a51.15,51.15,0,0,1,49.9,39.9L666.035,743.206a41.34,41.34,0,0,1-38.294,50.382L380.386,805.776a54.615,54.615,0,0,1-56.43-44.827L254.989,379.68l-5.131,1.466-13.2-72.265,5.281-1.32L222.693,201.136a31.493,31.493,0,0,1,31.25-37.1Z" transform="translate(-161.514 -78)" fill="#3f3d56"/>
  <path id="Path_32" data-name="Path 32" d="M462.882,175.664h28.087a35.349,35.349,0,0,1,34.536,27.813L642.2,738.345a21.9,21.9,0,0,1-19.967,26.525L375.682,781.029a28.367,28.367,0,0,1-29.773-23.277L246.33,204.914a24.846,24.846,0,0,1,24.452-29.25h26.645a11.726,11.726,0,0,1,11.323,8.677h0a10.352,10.352,0,0,0,10,7.661H445.239a17.7,17.7,0,0,0,17.643-16.338Z" transform="translate(-161.514 -78)" fill="#fff"/>
  <path id="Path_33" data-name="Path 33" d="M104,188.606H371.476L399.971,317,129,322Z" fill="#18ebb6"/>
  <path id="Path_34" data-name="Path 34" d="M358,431.754h62.971l2,12.055H360Z" fill="#18ebb6"/>
  <rect id="Rectangle_4" data-name="Rectangle 4" width="267.125" height="1.257" transform="translate(142.171 375.914) rotate(-1.213)" fill="#2f2e41"/>
  <rect id="Rectangle_5" data-name="Rectangle 5" width="272.164" height="1.257" transform="matrix(1, -0.023, 0.023, 1, 145.311, 413.613)" fill="#2f2e41"/>
  <path id="Path_35" data-name="Path 35" d="M384,560.754h62.971l2,12.055H386Z" fill="#18ebb6"/>
  <rect id="Rectangle_6" data-name="Rectangle 6" width="267.125" height="1.257" transform="translate(168.171 504.915) rotate(-1.213)" fill="#2f2e41"/>
  <rect id="Rectangle_7" data-name="Rectangle 7" width="272.164" height="1.257" transform="matrix(1, -0.023, 0.023, 1, 171.311, 542.612)" fill="#2f2e41"/>
</svg>
